<?xml version="1.0" encoding="UTF-8" standalone="no"?>
<!DOCTYPE svg PUBLIC "-//W3C//DTD SVG 1.1//EN" "http://www.w3.org/Graphics/SVG/1.1/DTD/svg11.dtd">
<svg width="100%" height="100%" viewBox="0 0 1920 1080" version="1.1" xmlns="http://www.w3.org/2000/svg" xmlns:xlink="http://www.w3.org/1999/xlink" xml:space="preserve" xmlns:serif="http://www.serif.com/" style="fill-rule:evenodd;clip-rule:evenodd;stroke-linecap:round;stroke-linejoin:round;stroke-miterlimit:1.5;">
    <path d="M-18.763,1050.43C-18.763,1050.43 483.197,859.06 -25.038,661.413" style="fill:rgb(251,74,17);stroke:black;stroke-opacity:0;stroke-width:1px;"/>
    <path d="M-293.085,476.682L-287.061,641.325C-287.061,641.325 178.758,269.874 204.86,263.85" style="fill:none;stroke:black;stroke-opacity:0;stroke-width:1px;"/>
    <path d="M-22.026,826.046C-22.026,826.046 442.789,611.207 -24.034,366.25C-490.858,121.294 -197.712,502.784 -197.712,502.784" style="fill:rgb(188,62,25);stroke:black;stroke-opacity:0;stroke-width:1px;"/>
    <path d="M-209.76,101.215C201.848,532.901 386.57,44.996 143.621,-95.553C-99.328,-236.102 -388.458,265.858 -388.458,265.858" style="fill:rgb(230,47,0);stroke:black;stroke-opacity:0;stroke-width:1px;"/>
    <path d="M-537.038,277.905L-59.171,526.878C123.161,742.362 507.767,504.191 -29.054,137.356" style="fill:rgb(158,52,23);stroke:black;stroke-opacity:0;stroke-width:1px;"/>
    <path d="M284.17,1159.35C87.678,1113.89 410.9,558.985 -159.563,1046.91L400.625,1195.49" style="fill:rgb(255,88,15);stroke:black;stroke-opacity:0;stroke-width:1px;"/>
</svg>
